<?xml version="1.0" encoding="utf-8"?>
<!-- Generator: Adobe Illustrator 23.0.1, SVG Export Plug-In . SVG Version: 6.00 Build 0)  -->
<svg version="1.1" id="Layer_1" xmlns="http://www.w3.org/2000/svg" xmlns:xlink="http://www.w3.org/1999/xlink" x="0px" y="0px"
	 viewBox="0 0 40 40" style="enable-background:new 0 0 40 40;" xml:space="preserve">
<path d="M13.78,33.42c-1.82,0.35-3.59,0.4-5.33-0.04c-0.73-0.18-1.43-0.46-2.11-0.76c-0.71-0.32-1.17-0.86-1.56-1.51
	c-0.79-1.32-1.66-2.6-2.52-3.89C2.16,27.08,1.96,27,1.8,26.9c-0.48-0.29-1.01-0.52-1.44-0.86c-0.58-0.46-0.45-0.82,0.28-0.98
	c0.7-0.16,1.39-0.08,2.04,0.2c1.12,0.48,2.03,1.16,2.7,2.11c0.98,1.38,2.22,2.49,4.01,2.99c1.53,0.42,2.99,0.14,4.39-0.45
	c0.11-0.05,0.24-0.22,0.24-0.33c-0.04-1.27,0.45-2.36,1.39-3.29c0.02-0.02,0.01-0.05,0.01-0.04c-1.16-0.17-2.33-0.26-3.47-0.51
	c-5.18-1.13-8.4-4.47-8.99-9.21c-0.3-2.43-0.2-4.82,0.92-7.09C4.3,8.59,4.93,7.84,5.45,7.05c0.08-0.12,0.17-0.31,0.12-0.41
	C4.64,4.79,4.85,2.92,5.51,1.07C5.97-0.2,5.68-0.05,7.16,0.1c2.36,0.23,4.43,1.1,6.28,2.39c0.26,0.18,0.45,0.17,0.75,0.11
	c1.14-0.24,2.29-0.49,3.46-0.6c3-0.27,6-0.24,8.99,0.16c0.68,0.09,1.36,0.26,2.02,0.45c0.27,0.08,0.44,0.06,0.66-0.1
	c1.74-1.23,3.69-2.04,5.88-2.38c0.13-0.02,0.26-0.03,0.4-0.04c1.54-0.12,1.22-0.34,1.73,1.06c0.57,1.56,0.83,3.19,0.19,4.77
	c-0.28,0.7-0.16,1.12,0.31,1.71c1.72,2.13,2.26,4.6,2.17,7.18c-0.07,1.98-0.42,3.91-1.45,5.69c-1.69,2.95-4.5,4.57-8.02,5.29
	c-1.03,0.21-2.09,0.28-3.16,0.42c0.05,0.06,0.1,0.13,0.16,0.19c0.98,1.02,1.48,2.2,1.48,3.55c-0.01,2.75,0,5.5,0,8.26
	c0,0.65,0.18,0.85,0.87,1.06c0.28,0.08,0.56,0.19,0.82,0.31c0.08,0.04,0.16,0.18,0.13,0.25c-0.02,0.07-0.17,0.12-0.27,0.15
	c-0.11,0.03-0.23,0.01-0.35,0.01c-5.86,0-11.73,0-17.59,0c-0.08,0-0.17,0.02-0.25,0c-0.14-0.04-0.28-0.11-0.42-0.17
	c0.1-0.11,0.17-0.27,0.29-0.32c0.28-0.12,0.59-0.2,0.88-0.3c0.45-0.15,0.68-0.41,0.68-0.87c-0.02-1.5-0.01-3-0.01-4.51
	C13.81,33.7,13.79,33.59,13.78,33.42z"/>
</svg>
