<?xml version="1.0" encoding="utf-8"?>
<!-- Generator: Adobe Illustrator 23.0.1, SVG Export Plug-In . SVG Version: 6.00 Build 0)  -->
<svg version="1.1" id="Layer_1" xmlns="http://www.w3.org/2000/svg" xmlns:xlink="http://www.w3.org/1999/xlink" x="0px" y="0px"
	 viewBox="0 0 85 40" style="enable-background:new 0 0 85 40;" xml:space="preserve">
<g>
	<path d="M15.43,1.21h5.31l4.37,23.95h0.1l3.59-23.95h6.04l-6.61,37.59h-5.41l-4.69-24.83h-0.1l-4.37,24.83H8.24L1.11,1.21h6.04
		l3.96,23.95h0.1L15.43,1.21z"/>
	<path d="M39.85,38.79V1.21h6.46v37.59H39.85z"/>
	<path d="M53.12,38.79V1.21h6.46v13.9h0.1l6.77-13.9h6.46l-6.98,14l7.86,23.58h-6.56L61.97,21.3h-0.1l-2.29,4.17v13.33H53.12z"/>
	<path d="M77.43,38.79V1.21h6.46v37.59H77.43z"/>
</g>
</svg>
